<mxfile host="app.diagrams.net" modified="2025-02-06T13:07:38.064Z" agent="Mozilla/5.0 (Windows NT 10.0; Win64; x64) AppleWebKit/537.36 (KHTML, like Gecko) Chrome/133.0.0.0 Safari/537.36" version="23.1.5" etag="M8lnHhv6XS0BVgXTsTh4" type="github">
  <diagram name="Pagina-1" id="i7b97zmuy21g0DYa2D3r">
    <mxGraphModel>
      <root>
        <mxCell id="0" />
        <mxCell id="1" parent="0" />
      </root>
    </mxGraphModel>
  </diagram>
</mxfile>
